<svg xmlns="http://www.w3.org/2000/svg" viewBox="0 0 100 100"><defs/><defs><linearGradient id="a" x1="0" x2="1" y1="1" y2="0"><stop offset="0%" stop-color="#2E27AD"/><stop offset="100%" stop-color="#527FFF"/></linearGradient></defs><g><path fill="url(#a)" fill-rule="evenodd" d="m 0,0 h 100 v 100 h -100 z"/><path fill="#fff" fill-rule="evenodd" d="m 75.065,70.449 c -0.294,0.288 -0.429,0.701 -0.359,1.106 l 1.564,9.116 -8.189,-4.303 c -0.181,-0.096 -0.381,-0.144 -0.581,-0.144 -0.2,0 -0.399,0.048 -0.581,0.144 l -8.188,4.303 1.564,-9.116 c 0.069,-0.405 -0.065,-0.819 -0.36,-1.106 l -6.623,-6.456 9.153,-1.33 c 0.408,-0.059 0.759,-0.315 0.941,-0.684 l 4.094,-8.295 4.095,8.295 c 0.181,0.369 0.532,0.625 0.941,0.684 l 9.153,1.33 z m 10.499,-7.715 c -0.147,-0.453 -0.537,-0.782 -1.009,-0.851 l -11.01,-1.6 -4.924,-9.977 c -0.42,-0.853 -1.821,-0.853 -2.241,0 l -4.925,9.977 -11.009,1.6 c -0.471,0.069 -0.862,0.399 -1.01,0.851 -0.146,0.453 -0.024,0.949 0.316,1.281 l 7.968,7.765 -1.881,10.965 c -0.08,0.469 0.112,0.944 0.497,1.223 0.384,0.281 0.897,0.316 1.315,0.096 l 9.849,-5.178 9.849,5.178 c 0.182,0.095 0.383,0.143 0.581,0.142 0.259,0 0.517,-0.08 0.735,-0.238 0.385,-0.279 0.578,-0.754 0.496,-1.223 l -1.881,-10.965 7.967,-7.765 c 0.341,-0.333 0.464,-0.829 0.317,-1.281 z m -57.453,-30.175 c 0,-8.304 6.756,-15.059 15.06,-15.059 8.304,0 15.057,6.755 15.058,15.059 0,8.305 -6.754,15.06 -15.058,15.06 -8.304,0 -15.06,-6.755 -15.06,-15.06 z m 15.014,18.475 c 4.849,0 9.601,1.38 13.741,3.99 0.809,0.508 1.601,1.07 2.358,1.669 l 1.552,-1.959 c -0.828,-0.656 -1.694,-1.27 -2.576,-1.826 -2.877,-1.813 -6.025,-3.08 -9.3,-3.768 6.874,-2.384 11.829,-8.906 11.829,-16.581 0,-9.681 -7.876,-17.559 -17.558,-17.559 -9.683,0 -17.56,7.877 -17.56,17.559 0,7.661 4.941,14.175 11.795,16.567 -13.467,2.808 -23.656,15.33 -23.656,30.31 v 1.25 h 38.75 v -2.5 h -36.224 c 0.621,-15.083 12.426,-27.153 26.849,-27.152 z"/></g></svg>